<svg xmlns="http://www.w3.org/2000/svg" width="131.68" height="48" viewBox="0 0 131.68 48">
  <g id="Group_100" data-name="Group 100" transform="translate(-18281 -6782)">
    <path id="Path_312" data-name="Path 312" d="M10.04-4.96A4.513,4.513,0,0,0,12.8-5.6a1.834,1.834,0,0,0,.8-1.44,1.469,1.469,0,0,0-.64-1.26,7.1,7.1,0,0,0-1.8-.86L9.48-9.72q-1.76-.6-3.2-1.22a9.821,9.821,0,0,1-2.48-1.5,6.222,6.222,0,0,1-1.62-2.1,6.905,6.905,0,0,1-.58-2.98,6.547,6.547,0,0,1,2.62-5.44Q6.84-25,11.56-25a20.021,20.021,0,0,1,3.2.24,9.542,9.542,0,0,1,2.54.74,4.425,4.425,0,0,1,1.66,1.28,2.9,2.9,0,0,1,.6,1.82,3.2,3.2,0,0,1-.48,1.78,4.989,4.989,0,0,1-1.16,1.26,9.043,9.043,0,0,0-2.36-.98,11.837,11.837,0,0,0-3.24-.42,5.342,5.342,0,0,0-2.64.5,1.457,1.457,0,0,0-.84,1.26,1.164,1.164,0,0,0,.52.98,5.4,5.4,0,0,0,1.56.7l2.12.68a15,15,0,0,1,5.78,3.1,6.668,6.668,0,0,1,2.02,5.1,7.084,7.084,0,0,1-.68,3.1,6.665,6.665,0,0,1-2.02,2.44A9.851,9.851,0,0,1,14.82.16a16.72,16.72,0,0,1-4.54.56A18.345,18.345,0,0,1,6.86.42,10.827,10.827,0,0,1,4.1-.46,5.1,5.1,0,0,1,2.26-1.9,3.163,3.163,0,0,1,1.6-3.88a3,3,0,0,1,.68-1.98A5.183,5.183,0,0,1,3.76-7.12,10.879,10.879,0,0,0,6.5-5.6,9.551,9.551,0,0,0,10.04-4.96ZM44.48-16.32a7.18,7.18,0,0,1-1.18,4.06,9.506,9.506,0,0,1-3.14,2.94q.76,1.04,1.54,2t1.46,1.84q.68.88,1.22,1.64t.9,1.36A3.769,3.769,0,0,1,43.82-.34,4.06,4.06,0,0,1,41.44.4,5.123,5.123,0,0,1,39.92.2,3.676,3.676,0,0,1,38.8-.36a4.582,4.582,0,0,1-.88-.88,11.747,11.747,0,0,1-.76-1.12l-3.4-5.48H31.64v7.8A11.108,11.108,0,0,1,30.28.2,14.522,14.522,0,0,1,28.4.32,4.529,4.529,0,0,1,25.46-.4,3.353,3.353,0,0,1,24.64-3V-21.96a1.758,1.758,0,0,1,.46-1.3A3.287,3.287,0,0,1,26.36-24a15,15,0,0,1,3.16-.7,31.7,31.7,0,0,1,3.84-.22q5.52,0,8.32,2.34A7.743,7.743,0,0,1,44.48-16.32ZM33.56-13.16a4.6,4.6,0,0,0,2.76-.78,2.656,2.656,0,0,0,1.08-2.3,2.763,2.763,0,0,0-.98-2.3,4.972,4.972,0,0,0-3.1-.78q-.48,0-.9.04t-.86.12v6ZM56-7.52V-.04A11.108,11.108,0,0,1,54.64.2a14.522,14.522,0,0,1-1.88.12A4.529,4.529,0,0,1,49.82-.4,3.353,3.353,0,0,1,49-3V-21.96a1.758,1.758,0,0,1,.46-1.3A3.287,3.287,0,0,1,50.72-24a15.049,15.049,0,0,1,3.22-.7,29,29,0,0,1,3.38-.22q5.52,0,8.44,2.36a7.793,7.793,0,0,1,2.92,6.4,8.246,8.246,0,0,1-.74,3.54A7.974,7.974,0,0,1,65.86-9.9,9.441,9.441,0,0,1,62.6-8.14a13.882,13.882,0,0,1-4.28.62ZM57.88-13a4.1,4.1,0,0,0,2.68-.82,2.854,2.854,0,0,0,1-2.34,2.939,2.939,0,0,0-.94-2.34,4.052,4.052,0,0,0-2.74-.82q-.64,0-1.06.02a6.548,6.548,0,0,0-.86.1V-13Z" transform="translate(18344 6818)" fill="#6a75ca"/>
    <rect id="Rectangle_1534" data-name="Rectangle 1534" width="50" height="48" rx="9" transform="translate(18281 6782)" fill="#6a75ca"/>
    <path id="Path_308" data-name="Path 308" d="M7.492,228.065c-1.262-.646-5.371,4.172-7.046,9.394a5.173,5.173,0,0,0-.352,2.994c1.005,4.018,8.611,5.971,9.923,4.286.91-1.168-1.962-3.119-2.76-8.279C6.484,231.466,8.441,228.549,7.492,228.065Z" transform="translate(18292.963 6574.487)" fill="#eef0ff"/>
    <path id="Path_309" data-name="Path 309" d="M115.722,240.7c1.775-.223,4.585,7.264,4.328,14.186-.08,2.15-.411,3.026-.869,3.708-2.922,4.34-12.794,3.389-13.627.822-.578-1.778,3.67-2.861,6.836-8.645C115.454,245.178,114.387,240.869,115.722,240.7Z" transform="translate(18196.27 6557.309)" fill="#78c0ff"/>
    <path id="Path_310" data-name="Path 310" d="M5.952,0A5.952,5.952,0,1,1,0,5.952,5.952,5.952,0,0,1,5.952,0Z" transform="translate(18293.232 6797.693)" fill="#78c0ff"/>
    <path id="Path_311" data-name="Path 311" d="M5.952,0A5.952,5.952,0,1,1,0,5.952,5.952,5.952,0,0,1,5.952,0Z" transform="translate(18307.621 6791.153)" fill="#eef0ff"/>
  </g>
</svg>
