<svg xmlns="http://www.w3.org/2000/svg" width="25" height="25" viewBox="0 0 20.65 35.277">

    <defs>

        <!--<svg xmlns="http://www.w3.org/2000/svg" width="25" height="25" viewBox="0 0 20.65 35.277">-->
        <g id="well" data-name="Group 102" >
            <g id="Group_7" data-name="Group 7" transform="translate(0 23.586)">
                <g id="Group_6" data-name="Group 6">
                    <path id="Path_205" data-name="Path 205" d="M124.216,337.171H108.728a2.544,2.544,0,0,0-2.581,2.505v9.185H126.8v-9.185A2.544,2.544,0,0,0,124.216,337.171Z" transform="translate(-106.147 -337.171)"/>
                </g>
            </g>
            <g id="Group_9" data-name="Group 9">
                <g id="Group_8" data-name="Group 8">
                    <path id="Path_206" data-name="Path 206" d="M125.075,0H107.867l-1.721,10.02H126.8Z" transform="translate(-106.146)"/>
                </g>
            </g>
            <g id="Group_11" data-name="Group 11" transform="translate(1.67 13.013)">
                <g id="Group_10" data-name="Group 10">
                    <rect id="Rectangle_567" data-name="Rectangle 567" width="2.505" height="7.515"/>
                </g>
            </g>
            <g id="Group_13" data-name="Group 13" transform="translate(16.475 13.013)">
                <g id="Group_12" data-name="Group 12">
                    <rect id="Rectangle_568" data-name="Rectangle 568" width="2.505" height="7.515"/>
                </g>
            </g>
            <g id="Group_15" data-name="Group 15" transform="translate(7.402 13.013)">
                <g id="Group_14" data-name="Group 14">
                    <path id="Path_207" data-name="Path 207" d="M216.468,190.24v-2.923h-2.505v2.923h-1.67l.418,4.593h5.01l.418-4.593Z" transform="translate(-212.293 -187.317)" />
                </g>
            </g>
        </g>

        <!--<svg xmlns="http://www.w3.org/2000/svg" width="20.65" height="33.672" viewBox="0 0 20.65 33.672">-->
        <g id="fluid">
            <g id="Group_3" data-name="Group 3" transform="translate(0 6.908)">
                <g id="Group_2" data-name="Group 2">
                    <path id="Path_203" data-name="Path 203" d="M106.94,104.2c-.408-.344-.854-.69-1.286-1.025-1.99-1.542-4.047-3.137-4.047-5.656a.264.264,0,0,0-.03-.123,1.47,1.47,0,0,0-2.937.047.263.263,0,0,0-.011.076c0,2.176-1.709,3.592-3.361,4.961-.5.413-1.014.84-1.452,1.264a10.808,10.808,0,0,0-1.006,15.917,10.119,10.119,0,0,0,7.3,3.11h0a10.118,10.118,0,0,0,7.3-3.11,10.814,10.814,0,0,0-.47-15.46Z" transform="translate(-89.784 -96.008)"/>
                </g>
            </g>
            <g id="Group_5" data-name="Group 5" transform="translate(8.081)">
                <g id="Group_4" data-name="Group 4" transform="translate(0)">
                    <path id="Path_204" data-name="Path 204" d="M221.052,0A2.244,2.244,0,1,0,223.3,2.244,2.246,2.246,0,0,0,221.052,0Z" transform="translate(-218.808)"/>
                </g>
            </g>
        </g>

        <!--<svg xmlns="http://www.w3.org/2000/svg" width="20.402" height="20.401" viewBox="0 0 20.402 20.401">-->
        <g id="reservoir">
            <g id="Group_17" data-name="Group 17" transform="translate(4.051 6.236)">
                <g id="Group_16" data-name="Group 16">
                    <rect id="Rectangle_569" data-name="Rectangle 569" width="12.299" height="5.985"/>
                </g>
            </g>
            <g id="Group_19" data-name="Group 19" transform="translate(0 13.416)">
                <g id="Group_18" data-name="Group 18">
                    <path id="Path_208" data-name="Path 208" d="M20.338,342.823l-3.057-6.12H3.119l-3.056,6.12a.6.6,0,1,0,1.069.534l2.351-4.707a7,7,0,0,0,13.435,0l2.351,4.707a.6.6,0,0,0,1.069-.534Z" transform="translate(0 -336.703)" />
                </g>
            </g>
            <g id="Group_21" data-name="Group 21" transform="translate(0 0)">
                <g id="Group_20" data-name="Group 20" transform="translate(0)">
                    <path id="Path_209" data-name="Path 209" d="M20.027,3.89,10.424.044a.6.6,0,0,0-.444,0L.376,3.89A.6.6,0,0,0,.6,5.043H19.8a.6.6,0,0,0,.222-1.153Z" transform="translate(-0.001 -0.002)"/>
                </g>
            </g>

        </g>

        <!--<svg xmlns="http://www.w3.org/2000/svg" width="20.898" height="21.837" viewBox="0 0 20.898 21.837">-->
        <g id="fishing-reel">

            <g id="Group_35" data-name="Group 35" transform="translate(1.946 2.713)">
                <g id="Group_34" data-name="Group 34">
                    <path id="Path_214" data-name="Path 214" d="M67.677,72.595V70H56v2.595h1.73v3.027H56v5.622H67.677V75.622h-1.73V72.595ZM64.65,75.622H59.027v-.174L64.65,74.1Zm0-2.853-5.622,1.345V72.595H64.65Z" transform="translate(-56 -70)"/>
                </g>
            </g>
            <g id="Group_37" data-name="Group 37" transform="translate(3.603)">
                <g id="Group_36" data-name="Group 36">
                    <path id="Path_215" data-name="Path 215" d="M102.066,0h-3.46a2.382,2.382,0,0,0-2.368,2.162h8.2A2.382,2.382,0,0,0,102.066,0Z" transform="translate(-96.238)"/>
                </g>
            </g>
            <g id="Group_39" data-name="Group 39" transform="translate(5.095 14.83)">
                <g id="Group_38" data-name="Group 38">
                    <path id="Path_216" data-name="Path 216" d="M131,350v4.411a2.595,2.595,0,1,0,5.19,0V350Z" transform="translate(-131 -350)"/>
                </g>
            </g>
            <g id="Group_41" data-name="Group 41" transform="translate(3.168 15.073)">
                <g id="Group_40" data-name="Group 40">
                    <path id="Path_217" data-name="Path 217" d="M81,368.941a1.733,1.733,0,0,0,1.3,1.675v-3.35A1.733,1.733,0,0,0,81,368.941Z" transform="translate(-81 -367.266)"/>
                </g>
            </g>
            <g id="Group_43" data-name="Group 43" transform="translate(11.156 15.356)">
                <g id="Group_42" data-name="Group 42" transform="translate(0 0)">
                    <rect id="Rectangle_572" data-name="Rectangle 572" width="4.182" height="2.987"/>
                </g>
            </g>
            <g id="Group_45" data-name="Group 45" transform="translate(18.303 9.188)">
                <g id="Group_44" data-name="Group 44">
                    <path id="Path_218" data-name="Path 218" d="M441.865,216H441v3.46h.865a1.73,1.73,0,0,0,0-3.46Z" transform="translate(-441 -216)"/>
                </g>
            </g>
            <g id="Group_47" data-name="Group 47" transform="translate(15.895 7.78)">
                <g id="Group_46" data-name="Group 46" transform="translate(0 0)">
                    <rect id="Rectangle_573" data-name="Rectangle 573" width="1.195" height="10.157"/>
                </g>
            </g>
            <g id="Group_49" data-name="Group 49" transform="translate(0 6.368)">
                <g id="Group_48" data-name="Group 48">
                    <path id="Path_219" data-name="Path 219" d="M13.379,151.3V150H11v3.244a2.382,2.382,0,0,0,1.514,2.215v-1.567a1.076,1.076,0,0,1-.216-.648V151.3Z" transform="translate(-11 -150)"/>
                </g>
            </g>
            <g id="Group_51" data-name="Group 51" transform="translate(12.985 6.368)">
                <g id="Group_50" data-name="Group 50">
                    <path id="Path_220" data-name="Path 220" d="M316,150v1.3h1.081v1.946a1.076,1.076,0,0,1-.216.648v1.567a2.382,2.382,0,0,0,1.514-2.215V150Z" transform="translate(-316 -150.001)"/>
                </g>
            </g>

        </g>

    </defs>

</svg>
