<svg xmlns="http://www.w3.org/2000/svg" width="25" height="25" viewBox="0 0 20.65 35.277">

    <defs>

        <!-- PROJECT INFO ICONS -->

        <!--<svg xmlns="http://www.w3.org/2000/svg" width="55" height="57" viewBox="0 0 55 57">-->
        <g id="project-info" data-name="Group 104" transform="translate(-1533 -229)">
            <rect id="Rectangle_697" data-name="Rectangle 697" width="55" height="57" rx="16" transform="translate(1533 229)" fill="#ff964b"/>
            <g id="Warning" transform="translate(1547.818 244.818)">
                <path id="Path_35" data-name="Path 35" d="M13.238,0A13.238,13.238,0,1,0,26.476,13.238,13.277,13.277,0,0,0,13.238,0Zm1.82,20.188H11.418V17.044h3.806v3.144Zm.165-12.245-.993,7.281H12.245l-.993-7.281V6.288h4.137V7.943Z" fill="#fff"/>
            </g>
        </g>



        <!-- LOG ICONS -->

        <!--<svg xmlns="http://www.w3.org/2000/svg" width="25" height="25" viewBox="0 0 25 25">-->
        <g id="data-input" data-name="Group 105" transform="translate(-1550 -534)">
            <rect id="Rectangle_1327" data-name="Rectangle 1327" width="25" height="25" rx="7" transform="translate(1550 534)" fill="#6a75ca"/>
            <g id="Compose" transform="translate(1557 541)">
                <rect id="Rectangle_324" data-name="Rectangle 324" width="11" height="11" fill="none"/>
                <path id="Path_110" data-name="Path 110" d="M5.573,2.1l-3.891,4L0,10.936,4.837,9.358,8.728,5.468Zm4.942-.315L9.148.421a1.275,1.275,0,0,0-1.893,0L6.1,1.577l3.155,3.26,1.262-1.262a1.333,1.333,0,0,0,.421-.946A1.3,1.3,0,0,0,10.515,1.788Z" transform="translate(0.529 0.105)" fill="#fff"/>
            </g>
        </g>

        <!--<svg xmlns="http://www.w3.org/2000/svg" width="25" height="25" viewBox="0 0 25 25">-->
        <g id="warning" data-name="Group 102" transform="translate(-1550 -613)">
            <rect id="Rectangle_1325" data-name="Rectangle 1325" width="25" height="25" rx="7" transform="translate(1550 613)" fill="#fc0"/>
            <text id="_" data-name="!" transform="translate(1560 631)" fill="#fff" font-size="15" font-family="Raleway-Black, Raleway" font-weight="800"><tspan x="0" y="0">!</tspan></text>
        </g>

        <!--<svg xmlns="http://www.w3.org/2000/svg" width="25" height="25" viewBox="0 0 25 25">-->
        <g id="data-analysis" data-name="Group 101" transform="translate(-1550 -695)">
            <rect id="Rectangle_1320" data-name="Rectangle 1320" width="25" height="25" rx="7" transform="translate(1550 695)" fill="#fff"/>
            <rect id="Rectangle_1321" data-name="Rectangle 1321" width="3" height="10" rx="1.5" transform="translate(1555 705)" fill="#6a75ca"/>
            <rect id="Rectangle_1322" data-name="Rectangle 1322" width="3" height="14" rx="1.5" transform="translate(1561 701)" fill="#6a75ca"/>
            <rect id="Rectangle_1323" data-name="Rectangle 1323" width="3" height="7" rx="1.5" transform="translate(1567 708)" fill="#6a75ca"/>
        </g>

        <!--<svg xmlns="http://www.w3.org/2000/svg" width="25" height="25" viewBox="0 0 25 25">-->
        <g id="error" data-name="Group 103" transform="translate(-1550 -773)">
            <rect id="Rectangle_1318" data-name="Rectangle 1318" width="25" height="25" rx="7" transform="translate(1550 773)" fill="#e5989b"/>
            <text id="_" data-name="!" transform="translate(1560 791)" fill="#fff" font-size="15" font-family="Raleway-Black, Raleway" font-weight="800"><tspan x="0" y="0">!</tspan></text>
        </g>


    </defs>

</svg>
