<svg xmlns="http://www.w3.org/2000/svg" width="25" height="25" viewBox="0 0 20.65 35.277">

    <defs>

        <!--<svg xmlns="http://www.w3.org/2000/svg" width="129.148" height="48" viewBox="0 0 129.148 48">-->
        <g id="pvt-label" data-name="Group 106" transform="translate(-329 -56)">
            <rect id="Rectangle_1382" data-name="Rectangle 1382" width="50" height="48" rx="18" transform="translate(329 56)" fill="#6a75ca"/>
            <path id="Path_313" data-name="Path 313" d="M2.664,0V-25.56H13.5a7.255,7.255,0,0,1,3.258.738,8.428,8.428,0,0,1,2.574,1.944,9.173,9.173,0,0,1,1.692,2.736,8.23,8.23,0,0,1,.612,3.078,8.87,8.87,0,0,1-.576,3.15A8.746,8.746,0,0,1,19.44-11.2a7.959,7.959,0,0,1-2.52,1.908,7.29,7.29,0,0,1-3.24.72H7.632V0ZM7.632-12.924h5.76a2.845,2.845,0,0,0,2.286-1.116,4.618,4.618,0,0,0,.918-3.024,4.98,4.98,0,0,0-.288-1.746,4.242,4.242,0,0,0-.756-1.314,3.009,3.009,0,0,0-1.1-.81,3.217,3.217,0,0,0-1.278-.27H7.632ZM27.324-25.56,34.236-6.228l6.84-19.332H46.3L36.324,0H32.148L22.1-25.56ZM68.148-21.2H59.976V0H55.044V-21.2H46.872V-25.56H68.148Z" transform="translate(390 93)" fill="#6a75ca"/>
            <g id="fishing-reel" transform="translate(340.727 70.872)">
                <g id="Group_29" data-name="Group 29">
                    <g id="Group_28" data-name="Group 28">
                        <path id="Path_212" data-name="Path 212" d="M2.969,96.29H2.03A2.032,2.032,0,0,0,0,98.32V109a2.032,2.032,0,0,0,2.03,2.03h.939A2.032,2.032,0,0,0,5,109V98.32A2.032,2.032,0,0,0,2.969,96.29Z" transform="translate(0 -96.29)" fill="#fff"/>
                    </g>
                </g>
                <g id="Group_31" data-name="Group 31" transform="translate(13.962 0)">
                    <g id="Group_30" data-name="Group 30">
                        <path id="Path_213" data-name="Path 213" d="M257.94,110.7h-2.4a1.509,1.509,0,0,0-1.431,1.034h-.384a1.5,1.5,0,0,1-1.5-1.5v-3.557a3.028,3.028,0,0,0-.158-6.052h-2.944v-2.31a2.032,2.032,0,0,0-2.03-2.03h-.939a2.032,2.032,0,0,0-2.03,2.03V109a2.032,2.032,0,0,0,2.03,2.03h.939a2.032,2.032,0,0,0,2.03-2.03v-2.31h1.386v3.553a3.215,3.215,0,0,0,3.212,3.212h.362a1.509,1.509,0,0,0,1.453,1.107h2.4a1.509,1.509,0,0,0,1.507-1.507v-.843A1.509,1.509,0,0,0,257.94,110.7Z" transform="translate(-244.127 -96.291)" fill="#fff"/>
                    </g>
                </g>
                <g id="Group_33" data-name="Group 33" transform="translate(6.424 1.995)">
                    <g id="Group_32" data-name="Group 32">
                        <rect id="Rectangle_571" data-name="Rectangle 571" width="6.089" height="10.745" fill="#fff"/>
                    </g>
                </g>
            </g>
        </g>

        <!--<svg xmlns="http://www.w3.org/2000/svg" width="20.325" height="20.325" viewBox="0 0 20.325 20.325">-->
        <g id="data-input">
            <path id="Path_110" data-name="Path 110" d="M10.358,3.909,3.127,11.335,0,20.325l8.99-2.932,7.231-7.231Zm9.185-.586L17,.782a2.37,2.37,0,0,0-3.518,0l-2.15,2.15L17.2,8.99l2.345-2.345a2.477,2.477,0,0,0,.782-1.759A2.413,2.413,0,0,0,19.543,3.322Z"/>
        </g>

        <!--<svg xmlns="http://www.w3.org/2000/svg" width="21.692" height="20" viewBox="0 0 21.692 20">-->
        <g id="confirmation" data-name="Group 99" transform="translate(1.863 0.518)">
            <rect id="Rectangle_726" data-name="Rectangle 726" width="17" height="4" rx="2" transform="translate(4.979 12.021) rotate(-45)"/>
            <rect id="Rectangle_727" data-name="Rectangle 727" width="9" height="4" rx="2" transform="translate(7.807 14.849) rotate(-135)"/>
            <rect id="Rectangle_1535" data-name="Rectangle 1535" width="15" height="3" rx="1.5" transform="translate(-1.863 -0.518)"/>
            <rect id="Rectangle_1537" data-name="Rectangle 1537" width="17" height="3" rx="1.5" transform="translate(-1.863 16.482)"/>
            <rect id="Rectangle_1536" data-name="Rectangle 1536" width="20" height="3" rx="1.5" transform="translate(1.137 -0.518) rotate(90)"/>
            <rect id="Rectangle_1538" data-name="Rectangle 1538" width="7" height="3" rx="1.5" transform="translate(15.137 12.482) rotate(90)"/>
        </g>

        <!--<svg xmlns="http://www.w3.org/2000/svg" width="17" height="17" viewBox="0 0 17 17">-->
        <g id="charts" data-name="Group 107" transform="translate(-1065 -75)">
            <rect id="Rectangle_1384" data-name="Rectangle 1384" width="4" height="13" rx="2" transform="translate(1065 79)"/>
            <rect id="Rectangle_1385" data-name="Rectangle 1385" width="4" height="17" rx="2" transform="translate(1072 75)"/>
            <rect id="Rectangle_1386" data-name="Rectangle 1386" width="4" height="9" rx="2" transform="translate(1078 83)"/>
        </g>

        <!--<svg xmlns="http://www.w3.org/2000/svg" width="20.988" height="21.001" viewBox="0 0 20.988 21.001">-->
        <g id="stats">
            <path id="Subtraction_6" data-name="Subtraction 6" d="M10.5,21a10.5,10.5,0,0,1,0-21,10.4,10.4,0,0,1,4.613,1.065L10.876,7.952A2,2,0,0,0,12.579,11h8.409A10.5,10.5,0,0,1,10.5,21Z"/>
        </g>

    </defs>

</svg>
