<svg xmlns="http://www.w3.org/2000/svg" width="25" height="25" viewBox="0 0 20.65 35.277">

    <defs>

<!--Ids are important        -->

        <svg id="simulation-status-warning" xmlns="http://www.w3.org/2000/svg" width="55" height="57" viewBox="0 0 55 57">
            <rect id="Rectangle_1496" data-name="Rectangle 1496" width="55" height="57" rx="16" fill="#ff964b"/>
            <g id="Warning" transform="translate(14.818 15.818)">
                <path id="Path_35" data-name="Path 35" d="M13.238,0A13.238,13.238,0,1,0,26.476,13.238,13.277,13.277,0,0,0,13.238,0Zm1.82,20.188H11.418V17.044h3.806v3.144Zm.165-12.245-.993,7.281H12.245l-.993-7.281V6.288h4.137V7.943Z" fill="#fff"/>
            </g>
        </svg>

        <svg id="simulations-list-remove" xmlns="http://www.w3.org/2000/svg" width="24" height="24" viewBox="0 0 24 24">
            <g id="Delete" transform="translate(3 2)">
                <path id="Fill_1" data-name="Fill 1" d="M15.289.792c0,.068-.533,6.809-.837,9.646a2.918,2.918,0,0,1-3,2.827c-1.293.029-2.56.039-3.806.039-1.323,0-2.616-.01-3.872-.039A2.917,2.917,0,0,1,.847,10.438C.534,7.591.011.86,0,.792A.794.794,0,0,1,.192.234.71.71,0,0,1,.715,0H14.585a.73.73,0,0,1,.523.234.748.748,0,0,1,.181.558" transform="translate(1.354 6.696)" fill="#e5989b" opacity="0.4"/>
                <path id="Fill_4" data-name="Fill 4" d="M18,3.977a.722.722,0,0,0-.713-.733H14.371A1.281,1.281,0,0,1,13.13,2.227L12.967,1.5a1.985,1.985,0,0,0-1.9-1.5H6.936A1.988,1.988,0,0,0,5.023,1.546l-.153.682A1.283,1.283,0,0,1,3.63,3.244H.714A.722.722,0,0,0,0,3.977v.38a.729.729,0,0,0,.714.733H17.287A.729.729,0,0,0,18,4.357Z" transform="translate(0 0)" fill="#e5989b"/>
            </g>
        </svg>

        <svg id="simulations-list-edit" xmlns="http://www.w3.org/2000/svg" width="24" height="24" viewBox="0 0 24 24">
            <g id="Edit" transform="translate(3 3)">
                <path id="Fill_1" data-name="Fill 1" d="M6.7,0H1.007A1.017,1.017,0,0,0,0,1.023,1.016,1.016,0,0,0,1.007,2.047H6.7A1.016,1.016,0,0,0,7.709,1.023,1.017,1.017,0,0,0,6.7,0" transform="translate(10.291 15.953)" fill="#7c85d0" opacity="0.4"/>
                <path id="Fill_3" data-name="Fill 3" d="M7.309.067l5.4,4.36a.31.31,0,0,1,.051.429l-6.4,8.335a2.1,2.1,0,0,1-1.63.817l-3.492.043a.4.4,0,0,1-.392-.312L.052,10.289a2.137,2.137,0,0,1,.4-1.8L6.883.118A.3.3,0,0,1,7.309.067" transform="translate(0 3.837)" fill="#7c85d0"/>
                <path id="Fill_5" data-name="Fill 5" d="M6.977,5.665l-1.04,1.3a.3.3,0,0,1-.423.048c-1.265-1.023-4.5-3.65-5.4-4.377A.308.308,0,0,1,.069,2.2l1-1.246A2.572,2.572,0,0,1,4.85.7L6.321,1.871A3.066,3.066,0,0,1,7.464,3.623a2.406,2.406,0,0,1-.487,2.042" transform="translate(8.144 0)" fill="#7c85d0" opacity="0.4"/>
            </g>
        </svg>

        <svg id="simulations-list-discard" width="24" height="24" viewBox="0 0 24 24" fill="none" xmlns="http://www.w3.org/2000/svg">
            <path opacity="0.4" d="M17.208 0H6.804C2.736 0 0 2.856 0 7.104V16.908C0 21.144 2.736 24 6.804 24H17.208C21.276 24 24 21.144 24 16.908V7.104C24 2.856 21.276 0 17.208 0Z" fill="#B35656"/>
            <path d="M15.619 14.1246L13.4842 11.991L15.6178 9.8574C16.0282 9.4482 16.0282 8.7822 15.6178 8.373C15.2074 7.9602 14.5438 7.9614 14.1334 8.3718L11.9986 10.5054L9.86379 8.3694C9.45339 7.959 8.78859 7.9614 8.37819 8.3694C7.96899 8.7798 7.96899 9.4458 8.37819 9.855L10.5142 11.991L8.38299 14.121C7.97259 14.5314 7.97259 15.1974 8.38299 15.6054C8.58819 15.8118 8.85579 15.9138 9.12459 15.9138C9.39459 15.9138 9.66219 15.8118 9.86739 15.6066L11.9986 13.4754L14.1346 15.6102C14.3398 15.8154 14.6074 15.9174 14.8762 15.9174C15.145 15.9174 15.4138 15.8142 15.619 15.6102C16.0294 15.1998 16.0294 14.535 15.619 14.1246Z" fill="#B35656"/>
        </svg>

        <svg id="simulations-list-save" width="24" height="24" viewBox="0 0 24 24" fill="none" xmlns="http://www.w3.org/2000/svg">
            <path opacity="0.4" d="M17.208 0H6.804C2.736 0 0 2.856 0 7.104V16.908C0 21.144 2.736 24 6.804 24H17.208C21.276 24 24 21.144 24 16.908V7.104C24 2.856 21.276 0 17.208 0Z" fill="#2D864C"/>
            <path d="M10.5759 15.8976C10.3071 15.8976 10.0383 15.7956 9.83313 15.5904L6.98553 12.7428C6.57513 12.3324 6.57513 11.6676 6.98553 11.2584C7.39593 10.848 8.05953 10.8468 8.46993 11.2572L10.5759 13.3632L15.5295 8.40961C15.9399 7.99921 16.6035 7.99921 17.0139 8.40961C17.4243 8.82001 17.4243 9.48481 17.0139 9.89521L11.3187 15.5904C11.1135 15.7956 10.8447 15.8976 10.5759 15.8976Z" fill="#2D864C"/>
        </svg>

    </defs>

</svg>
